# xmcd CD database file
#
# Track frame offsets:
#	150
#	18857
#	35805
#	50672
#	65630
#	83097
#	102072
#	118497
#	135005
#	152382
#	168267
#	187090
#	205165
#	224015
#	242825
#	259330
#	278152
#	296827
#
# Disc length: 4200 seconds
#
# Revision: 2
# Processed by: cddbd v1.5.2PL0 Copyright (c) Steve Scherf et al.
# Submitted via: CDex 1.51
#
DISCID=0f106612
DTITLE=Various Artist - Check It Out
DYEAR=1900
DGENRE=
TTITLE0=Sergio Mendes/What Is This
TTITLE1=Bivattchee/Solar Sex Panel
TTITLE2=Colorhaus/Innocent Child
TTITLE3=L7/Everglade
TTITLE4=Linear/T.L.C.
TTITLE5=Kronos Quartet (Dumisani Maraire)/Kutambarara
TTITLE6=The Jesus and Mary Chain/Reverence
TTITLE7=Das EFX/The Want EFX
TTITLE8=Lynch Mob/Jungle Of Love
TTITLE9=Army of Lovers/Crucified
TTITLE10=Tori Amos/Crucify
TTITLE11=Little Texas/First Time For Everything
TTITLE12=Ephraim Lewis/It Can't Be Forever
TTITLE13=Electric Boys/Mary In The Mystery World
TTITLE14=Howard Jones/Lift Me Up
TTITLE15=Truth, Inc/The Very Best Of Me
TTITLE16=Steve Wynn/Drag
TTITLE17=King's X/Black Flag
EXTD=
EXTT0=
EXTT1=
EXTT2=
EXTT3=
EXTT4=
EXTT5=
EXTT6=
EXTT7=
EXTT8=
EXTT9=
EXTT10=
EXTT11=
EXTT12=
EXTT13=
EXTT14=
EXTT15=
EXTT16=
EXTT17=
PLAYORDER=
